<svg xmlns="http://www.w3.org/2000/svg" version="1.1" xmlns:xlink="http://www.w3.org/1999/xlink" xmlns:svgjs="http://svgjs.com/svgjs" width="1440" height="560" preserveAspectRatio="none" viewBox="0 0 1440 560"><g mask="url(&quot;#SvgjsMask1241&quot;)" fill="none"><rect width="1440" height="560" x="0" y="0" fill="rgba(186, 199, 213, 1)"></rect><path d="M38.02 598.32L124.63 648.32L124.63 748.32L38.02 798.32L-48.59 748.32L-48.59 648.32zM211.23 -1.68L297.83 48.32L297.83 148.32L211.23 198.32L124.63 148.32L124.63 48.32zM297.83 448.32L384.44 498.32L384.44 598.32L297.83 648.32L211.23 598.32L211.23 498.32zM471.05 148.32L557.65 198.32L557.65 298.32L471.05 348.32L384.44 298.32L384.44 198.32zM384.44 298.32L471.05 348.32L471.05 448.32L384.44 498.32L297.83 448.32L297.83 348.32zM384.44 598.32L471.05 648.32L471.05 748.32L384.44 798.32L297.83 748.32L297.83 648.32zM817.47 448.32L904.07 498.32L904.07 598.32L817.47 648.32L730.86 598.32L730.86 498.32zM730.86 598.32L817.47 648.32L817.47 748.32L730.86 798.32L644.25 748.32L644.25 648.32zM1510.31 448.32L1596.91 498.32L1596.91 598.32L1510.31 648.32L1423.7 598.32L1423.7 498.32z" stroke="rgba(29, 49, 71, 1)" stroke-width="2"></path><path d="M28.02 598.32 a10 10 0 1 0 20 0 a10 10 0 1 0 -20 0zM114.63 648.32 a10 10 0 1 0 20 0 a10 10 0 1 0 -20 0zM114.63 748.32 a10 10 0 1 0 20 0 a10 10 0 1 0 -20 0zM28.02 798.32 a10 10 0 1 0 20 0 a10 10 0 1 0 -20 0zM-58.59 748.32 a10 10 0 1 0 20 0 a10 10 0 1 0 -20 0zM-58.59 648.32 a10 10 0 1 0 20 0 a10 10 0 1 0 -20 0zM201.23 -1.68 a10 10 0 1 0 20 0 a10 10 0 1 0 -20 0zM287.83 48.32 a10 10 0 1 0 20 0 a10 10 0 1 0 -20 0zM287.83 148.32 a10 10 0 1 0 20 0 a10 10 0 1 0 -20 0zM201.23 198.32 a10 10 0 1 0 20 0 a10 10 0 1 0 -20 0zM114.63 148.32 a10 10 0 1 0 20 0 a10 10 0 1 0 -20 0zM114.63 48.32 a10 10 0 1 0 20 0 a10 10 0 1 0 -20 0zM287.83 448.32 a10 10 0 1 0 20 0 a10 10 0 1 0 -20 0zM374.44 498.32 a10 10 0 1 0 20 0 a10 10 0 1 0 -20 0zM374.44 598.32 a10 10 0 1 0 20 0 a10 10 0 1 0 -20 0zM287.83 648.32 a10 10 0 1 0 20 0 a10 10 0 1 0 -20 0zM201.23 598.32 a10 10 0 1 0 20 0 a10 10 0 1 0 -20 0zM201.23 498.32 a10 10 0 1 0 20 0 a10 10 0 1 0 -20 0zM461.05 148.32 a10 10 0 1 0 20 0 a10 10 0 1 0 -20 0zM547.65 198.32 a10 10 0 1 0 20 0 a10 10 0 1 0 -20 0zM547.65 298.32 a10 10 0 1 0 20 0 a10 10 0 1 0 -20 0zM461.05 348.32 a10 10 0 1 0 20 0 a10 10 0 1 0 -20 0zM374.44 298.32 a10 10 0 1 0 20 0 a10 10 0 1 0 -20 0zM374.44 198.32 a10 10 0 1 0 20 0 a10 10 0 1 0 -20 0zM461.05 448.32 a10 10 0 1 0 20 0 a10 10 0 1 0 -20 0zM287.83 348.32 a10 10 0 1 0 20 0 a10 10 0 1 0 -20 0zM461.05 648.32 a10 10 0 1 0 20 0 a10 10 0 1 0 -20 0zM461.05 748.32 a10 10 0 1 0 20 0 a10 10 0 1 0 -20 0zM374.44 798.32 a10 10 0 1 0 20 0 a10 10 0 1 0 -20 0zM287.83 748.32 a10 10 0 1 0 20 0 a10 10 0 1 0 -20 0zM807.47 448.32 a10 10 0 1 0 20 0 a10 10 0 1 0 -20 0zM894.07 498.32 a10 10 0 1 0 20 0 a10 10 0 1 0 -20 0zM894.07 598.32 a10 10 0 1 0 20 0 a10 10 0 1 0 -20 0zM807.47 648.32 a10 10 0 1 0 20 0 a10 10 0 1 0 -20 0zM720.86 598.32 a10 10 0 1 0 20 0 a10 10 0 1 0 -20 0zM720.86 498.32 a10 10 0 1 0 20 0 a10 10 0 1 0 -20 0zM807.47 748.32 a10 10 0 1 0 20 0 a10 10 0 1 0 -20 0zM720.86 798.32 a10 10 0 1 0 20 0 a10 10 0 1 0 -20 0zM634.25 748.32 a10 10 0 1 0 20 0 a10 10 0 1 0 -20 0zM634.25 648.32 a10 10 0 1 0 20 0 a10 10 0 1 0 -20 0zM1500.31 448.32 a10 10 0 1 0 20 0 a10 10 0 1 0 -20 0zM1586.91 498.32 a10 10 0 1 0 20 0 a10 10 0 1 0 -20 0zM1586.91 598.32 a10 10 0 1 0 20 0 a10 10 0 1 0 -20 0zM1500.31 648.32 a10 10 0 1 0 20 0 a10 10 0 1 0 -20 0zM1413.7 598.32 a10 10 0 1 0 20 0 a10 10 0 1 0 -20 0zM1413.7 498.32 a10 10 0 1 0 20 0 a10 10 0 1 0 -20 0z" fill="rgba(29, 49, 71, 1)"></path><path d="M17.67 -23.49L60.97 1.51L60.97 51.51L17.67 76.51L-25.63 51.51L-25.63 1.51zM60.97 51.51L104.28 76.51L104.28 126.51L60.97 151.51L17.67 126.51L17.67 76.51zM17.67 276.51L60.97 301.51L60.97 351.51L17.67 376.51L-25.63 351.51L-25.63 301.51zM104.28 -23.49L147.58 1.51L147.58 51.51L104.28 76.51L60.97 51.51L60.97 1.51zM147.58 51.51L190.88 76.51L190.88 126.51L147.58 151.51L104.28 126.51L104.28 76.51zM147.58 201.51L190.88 226.51L190.88 276.51L147.58 301.51L104.28 276.51L104.28 226.51zM147.58 501.51L190.88 526.51L190.88 576.51L147.58 601.51L104.28 576.51L104.28 526.51zM190.88 126.51L234.18 151.51L234.18 201.51L190.88 226.51L147.58 201.51L147.58 151.51zM234.18 201.51L277.49 226.51L277.49 276.51L234.18 301.51L190.88 276.51L190.88 226.51zM234.18 501.51L277.49 526.51L277.49 576.51L234.18 601.51L190.88 576.51L190.88 526.51zM277.49 126.51L320.79 151.51L320.79 201.51L277.49 226.51L234.18 201.51L234.18 151.51zM277.49 276.51L320.79 301.51L320.79 351.51L277.49 376.51L234.18 351.51L234.18 301.51zM320.79 501.51L364.09 526.51L364.09 576.51L320.79 601.51L277.49 576.51L277.49 526.51zM364.09 126.51L407.39 151.51L407.39 201.51L364.09 226.51L320.79 201.51L320.79 151.51zM364.09 276.51L407.39 301.51L407.39 351.51L364.09 376.51L320.79 351.51L320.79 301.51zM407.39 351.51L450.7 376.51L450.7 426.51L407.39 451.51L364.09 426.51L364.09 376.51zM364.09 426.51L407.39 451.51L407.39 501.51L364.09 526.51L320.79 501.51L320.79 451.51zM450.7 426.51L494 451.51L494 501.51L450.7 526.51L407.39 501.51L407.39 451.51zM580.6 201.51L623.9 226.51L623.9 276.51L580.6 301.51L537.3 276.51L537.3 226.51zM623.9 -23.49L667.21 1.51L667.21 51.51L623.9 76.51L580.6 51.51L580.6 1.51zM623.9 276.51L667.21 301.51L667.21 351.51L623.9 376.51L580.6 351.51L580.6 301.51zM623.9 426.51L667.21 451.51L667.21 501.51L623.9 526.51L580.6 501.51L580.6 451.51zM753.81 51.51L797.12 76.51L797.12 126.51L753.81 151.51L710.51 126.51L710.51 76.51zM753.81 351.51L797.12 376.51L797.12 426.51L753.81 451.51L710.51 426.51L710.51 376.51zM753.81 501.51L797.12 526.51L797.12 576.51L753.81 601.51L710.51 576.51L710.51 526.51zM797.12 -23.49L840.42 1.51L840.42 51.51L797.12 76.51L753.81 51.51L753.81 1.51zM840.42 501.51L883.72 526.51L883.72 576.51L840.42 601.51L797.12 576.51L797.12 526.51zM883.72 126.51L927.02 151.51L927.02 201.51L883.72 226.51L840.42 201.51L840.42 151.51zM927.02 201.51L970.33 226.51L970.33 276.51L927.02 301.51L883.72 276.51L883.72 226.51zM883.72 276.51L927.02 301.51L927.02 351.51L883.72 376.51L840.42 351.51L840.42 301.51zM883.72 426.51L927.02 451.51L927.02 501.51L883.72 526.51L840.42 501.51L840.42 451.51zM1013.63 51.51L1056.93 76.51L1056.93 126.51L1013.63 151.51L970.33 126.51L970.33 76.51zM970.33 126.51L1013.63 151.51L1013.63 201.51L970.33 226.51L927.02 201.51L927.02 151.51zM1013.63 201.51L1056.93 226.51L1056.93 276.51L1013.63 301.51L970.33 276.51L970.33 226.51zM1013.63 351.51L1056.93 376.51L1056.93 426.51L1013.63 451.51L970.33 426.51L970.33 376.51zM1056.93 -23.49L1100.23 1.51L1100.23 51.51L1056.93 76.51L1013.63 51.51L1013.63 1.51zM1100.23 201.51L1143.54 226.51L1143.54 276.51L1100.23 301.51L1056.93 276.51L1056.93 226.51zM1143.54 -23.49L1186.84 1.51L1186.84 51.51L1143.54 76.51L1100.23 51.51L1100.23 1.51zM1143.54 126.51L1186.84 151.51L1186.84 201.51L1143.54 226.51L1100.23 201.51L1100.23 151.51zM1186.84 201.51L1230.14 226.51L1230.14 276.51L1186.84 301.51L1143.54 276.51L1143.54 226.51zM1143.54 426.51L1186.84 451.51L1186.84 501.51L1143.54 526.51L1100.23 501.51L1100.23 451.51zM1186.84 501.51L1230.14 526.51L1230.14 576.51L1186.84 601.51L1143.54 576.51L1143.54 526.51zM1230.14 126.51L1273.44 151.51L1273.44 201.51L1230.14 226.51L1186.84 201.51L1186.84 151.51zM1273.44 351.51L1316.75 376.51L1316.75 426.51L1273.44 451.51L1230.14 426.51L1230.14 376.51zM1230.14 426.51L1273.44 451.51L1273.44 501.51L1230.14 526.51L1186.84 501.51L1186.84 451.51zM1360.05 201.51L1403.35 226.51L1403.35 276.51L1360.05 301.51L1316.75 276.51L1316.75 226.51zM1360.05 351.51L1403.35 376.51L1403.35 426.51L1360.05 451.51L1316.75 426.51L1316.75 376.51zM1403.35 -23.49L1446.65 1.51L1446.65 51.51L1403.35 76.51L1360.05 51.51L1360.05 1.51zM1403.35 126.51L1446.65 151.51L1446.65 201.51L1403.35 226.51L1360.05 201.51L1360.05 151.51zM1446.65 351.51L1489.96 376.51L1489.96 426.51L1446.65 451.51L1403.35 426.51L1403.35 376.51z" stroke="rgba(32, 180, 227, 1)" stroke-width="2"></path></g><defs><mask id="SvgjsMask1241"><rect width="1440" height="560" fill="#ffffff"></rect></mask></defs></svg>